<svg width="24" height="24" viewBox="0 0 24 24" fill="none" xmlns="http://www.w3.org/2000/svg">
<path d="M0 9.33333C0 4.17868 4.17868 0 9.33333 0H14.6667C19.8213 0 24 4.17868 24 9.33333V14.6667C24 19.8213 19.8213 24 14.6667 24H9.33333C4.17868 24 0 19.8213 0 14.6667V9.33333Z" fill="#FF444F"/>
<path d="M15.0558 4.97224L14.2819 9.36096H11.5956C9.0894 9.36096 6.70061 11.3914 6.25786 13.8976L6.07046 14.9643C5.62978 17.4705 7.30192 19.501 9.8081 19.501H12.0486C13.8752 19.501 15.6153 18.0224 15.9366 16.1958L18 4.49894L15.0558 4.97224ZM13.1497 15.7819C13.0508 16.3461 12.5429 16.8054 11.9786 16.8054H10.6174C9.49097 16.8054 8.73727 15.891 8.93495 14.7625L9.05234 14.0974C9.25208 12.9709 10.327 12.0545 11.4535 12.0545H13.8069L13.1497 15.7819Z" fill="white"/>
</svg>
